<svg width="301" height="327" viewBox="0 0 301 327" fill="none" xmlns="http://www.w3.org/2000/svg">
<path d="M28.1207 127.737L37.5473 138.088L37.5996 138.04L37.6515 137.992L28.1207 127.737ZM15.1769 148.843L1.1777 148.691L1.17751 148.709L1.17737 148.726L15.1769 148.843ZM14.0002 289.549L0.000642125 289.432L0.00028602 289.475L0.000188948 289.517L14.0002 289.549ZM37.5344 313L37.5179 327L37.5261 327H37.5344V313ZM89.3103 313L89.3103 327L89.3152 327L89.3103 313ZM112.845 291.894H98.8448V291.957L98.8454 292.02L112.845 291.894ZM112.845 223.886L98.8448 223.881V223.886H112.845ZM136.379 202.78L136.266 216.78L136.323 216.78H136.379V202.78ZM150.5 14L160.031 3.74504C154.658 -1.24835 146.342 -1.24835 140.969 3.74504L150.5 14ZM272.879 127.737L263.349 137.992L263.4 138.04L263.453 138.088L272.879 127.737ZM285.823 148.843L299.823 148.726L299.823 148.709L299.822 148.691L285.823 148.843ZM287 289.549L301 289.517L301 289.475L300.999 289.432L287 289.549ZM263.466 313V327H263.474L263.482 327L263.466 313ZM211.69 313L211.685 327H211.69V313ZM188.155 291.894L202.155 292.02L202.155 291.957V291.894H188.155ZM188.155 223.886L202.155 223.886L202.155 223.881L188.155 223.886ZM164.621 202.78V216.78H164.678L164.734 216.78L164.621 202.78ZM18.6941 117.386C14.1855 121.492 9.72724 125.778 6.5484 130.665C2.94753 136.201 1.25007 142.029 1.1777 148.691L29.1761 148.995C29.1931 147.428 29.4365 146.829 30.0196 145.933C31.0248 144.387 32.9938 142.235 37.5473 138.088L18.6941 117.386ZM1.17737 148.726L0.000642125 289.432L27.9997 289.666L29.1764 148.96L1.17737 148.726ZM0.000188948 289.517C-0.0213924 298.984 1.81101 309.312 9.31653 317.029C16.8876 324.813 27.3377 326.988 37.5179 327L37.5509 299C34.2258 298.996 32.1216 298.623 30.8626 298.226C29.7094 297.862 29.4117 297.53 29.3883 297.506C29.385 297.503 27.9852 296.116 28.0001 289.581L0.000188948 289.517ZM37.5344 327H89.3103V299H37.5344V327ZM89.3152 327C98.3979 326.997 108.125 325.066 115.711 318.635C123.751 311.818 126.937 302.075 126.844 291.768L98.8454 292.02C98.8849 296.408 97.6774 297.215 97.6046 297.277C97.0772 297.724 94.9705 298.998 89.3054 299L89.3152 327ZM126.845 291.894V223.886H98.8448V291.894H126.845ZM126.845 223.891C126.846 220.233 127.167 218.246 127.456 217.251C127.68 216.479 127.7 216.905 127.07 217.451C126.55 217.901 126.485 217.637 128.02 217.316C129.642 216.977 132.206 216.747 136.266 216.78L136.493 188.781C127.636 188.709 116.746 189.357 108.748 196.277C100.125 203.739 98.848 214.747 98.8448 223.881L126.845 223.891ZM37.6515 137.992L160.031 24.255L140.969 3.74504L18.5899 117.482L37.6515 137.992ZM263.453 138.088C268.006 142.235 269.975 144.387 270.98 145.933C271.564 146.829 271.807 147.428 271.824 148.995L299.822 148.691C299.75 142.029 298.052 136.201 294.452 130.665C291.273 125.778 286.815 121.492 282.306 117.386L263.453 138.088ZM271.824 148.96L273 289.666L300.999 289.432L299.823 148.726L271.824 148.96ZM273 289.581C273.015 296.116 271.615 297.503 271.612 297.506C271.588 297.53 271.291 297.862 270.137 298.226C268.878 298.623 266.774 298.996 263.449 299L263.482 327C273.662 326.988 284.112 324.813 291.683 317.029C299.189 309.312 301.021 298.984 301 289.517L273 289.581ZM263.466 299H211.69V327H263.466V299ZM211.695 299C206.03 298.998 203.923 297.724 203.395 297.277C203.323 297.215 202.115 296.408 202.155 292.02L174.156 291.768C174.063 302.075 177.249 311.818 185.289 318.635C192.875 325.066 202.602 326.997 211.685 327L211.695 299ZM202.155 291.894V223.886H174.155V291.894H202.155ZM202.155 223.881C202.152 214.747 200.875 203.739 192.252 196.277C184.254 189.357 173.364 188.709 164.507 188.781L164.734 216.78C168.794 216.747 171.358 216.977 172.98 217.316C174.515 217.637 174.45 217.901 173.93 217.451C173.3 216.905 173.32 216.479 173.544 217.251C173.833 218.246 174.154 220.233 174.155 223.891L202.155 223.881ZM282.41 117.482L160.031 3.74504L140.969 24.255L263.349 137.992L282.41 117.482ZM136.379 216.78H164.621V188.78H136.379V216.78Z" fill="white"/>
</svg>
